<svg viewBox="0 0 32 32" xmlns="http://www.w3.org/2000/svg" fill="none">
  <rect x="2" y="3" width="28" height="10" rx="2" stroke="#4a4e5c" stroke-width="2"/>
  <rect x="5" y="5.5" width="3.5" height="5" rx="0.5" fill="#4a4e5c" opacity="0.3"/>
  <rect x="10" y="5.5" width="3.5" height="5" rx="0.5" fill="#4a4e5c" opacity="0.3"/>
  <rect x="15" y="5.5" width="3.5" height="5" rx="0.5" fill="#4a4e5c" opacity="0.3"/>
  <rect x="20" y="5.5" width="3.5" height="5" rx="0.5" fill="#4a4e5c" opacity="0.3"/>
  <rect x="25" y="5.5" width="3.5" height="5" rx="0.5" fill="#4a4e5c" opacity="0.3"/>
  <rect x="2" y="19" width="28" height="10" rx="2" stroke="#00b4d8" stroke-width="2"/>
  <rect x="5" y="21.5" width="3.5" height="5" rx="0.5" fill="#00b4d8" opacity="0.4"/>
  <rect x="10" y="21.5" width="3.5" height="5" rx="0.5" fill="#00b4d8" opacity="0.4"/>
  <rect x="15" y="21.5" width="3.5" height="5" rx="0.5" fill="#00b4d8" opacity="0.4"/>
  <rect x="20" y="21.5" width="3.5" height="5" rx="0.5" fill="#00b4d8" opacity="0.4"/>
  <rect x="25" y="21.5" width="3.5" height="5" rx="0.5" fill="#00b4d8" opacity="0.4"/>
  <circle cx="28" y="20.5" cy="20.5" r="1.5" fill="#28a745"/>
</svg>
